<?xml version="1.0" encoding="UTF-8"?>
<svg width="80" height="80" viewBox="0 0 80 80" fill="none" xmlns="http://www.w3.org/2000/svg">
    <path opacity="0.5" d="M40 70C56.5685 70 70 56.5685 70 40C70 23.4315 56.5685 10 40 10C23.4315 10 10 23.4315 10 40C10 56.5685 23.4315 70 40 70Z" fill="#3D3D3D"/>
    <path d="M50 25H30C28.8954 25 28 25.8954 28 27V53C28 54.1046 28.8954 55 30 55H50C51.1046 55 52 54.1046 52 53V27C52 25.8954 51.1046 25 50 25Z" stroke="#6E6E6E" stroke-width="2" stroke-linecap="round" stroke-linejoin="round"/>
    <path d="M36 32H44" stroke="#6E6E6E" stroke-width="2" stroke-linecap="round" stroke-linejoin="round"/>
    <path d="M36 40H44" stroke="#6E6E6E" stroke-width="2" stroke-linecap="round" stroke-linejoin="round"/>
    <path d="M36 48H40" stroke="#6E6E6E" stroke-width="2" stroke-linecap="round" stroke-linejoin="round"/>
    <path d="M40 15V20" stroke="#6E6E6E" stroke-width="2" stroke-linecap="round" stroke-linejoin="round"/>
    <path d="M40 60V65" stroke="#6E6E6E" stroke-width="2" stroke-linecap="round" stroke-linejoin="round"/>
    <path d="M60 40H65" stroke="#6E6E6E" stroke-width="2" stroke-linecap="round" stroke-linejoin="round"/>
    <path d="M15 40H20" stroke="#6E6E6E" stroke-width="2" stroke-linecap="round" stroke-linejoin="round"/>
    <path d="M54.1422 25.8579L57.6777 22.3223" stroke="#6E6E6E" stroke-width="2" stroke-linecap="round" stroke-linejoin="round"/>
    <path d="M22.3223 57.6777L25.8579 54.1422" stroke="#6E6E6E" stroke-width="2" stroke-linecap="round" stroke-linejoin="round"/>
    <path d="M54.1422 54.1422L57.6777 57.6777" stroke="#6E6E6E" stroke-width="2" stroke-linecap="round" stroke-linejoin="round"/>
    <path d="M22.3223 22.3223L25.8579 25.8579" stroke="#6E6E6E" stroke-width="2" stroke-linecap="round" stroke-linejoin="round"/>
</svg>
