<?xml version="1.0" encoding="UTF-8"?>
<svg width="24" height="24" viewBox="0 0 24 24" fill="none" xmlns="http://www.w3.org/2000/svg">
    <path d="M21 12V19C21 19.5304 20.7893 20.0391 20.4142 20.4142C20.0391 20.7893 19.5304 21 19 21H5C4.46957 21 3.96086 20.7893 3.58579 20.4142C3.21071 20.0391 3 19.5304 3 19V5C3 4.46957 3.21071 3.96086 3.58579 3.58579C3.96086 3.21071 4.46957 3 5 3H12" stroke="#0078D4" stroke-width="2" stroke-linecap="round" stroke-linejoin="round"/>
    <path d="M15 3H21V9" stroke="#0078D4" stroke-width="2" stroke-linecap="round" stroke-linejoin="round"/>
    <path d="M21 3L14 10" stroke="#0078D4" stroke-width="2" stroke-linecap="round" stroke-linejoin="round"/>
    <path d="M8.5 10C9.32843 10 10 9.32843 10 8.5C10 7.67157 9.32843 7 8.5 7C7.67157 7 7 7.67157 7 8.5C7 9.32843 7.67157 10 8.5 10Z" stroke="#0078D4" stroke-width="2" stroke-linecap="round" stroke-linejoin="round"/>
    <path d="M21 15L16 10L5 21" stroke="#0078D4" stroke-width="2" stroke-linecap="round" stroke-linejoin="round"/>
</svg>
