<?xml version="1.0" encoding="UTF-8"?>
<svg width="16" height="16" viewBox="0 0 16 16" fill="none" xmlns="http://www.w3.org/2000/svg">
    <path d="M8 1C4.13438 1 1 4.13438 1 8C1 11.8656 4.13438 15 8 15C11.8656 15 15 11.8656 15 8C15 4.13438 11.8656 1 8 1ZM8 13.8125C4.79063 13.8125 2.1875 11.2094 2.1875 8C2.1875 4.79063 4.79063 2.1875 8 2.1875C11.2094 2.1875 13.8125 4.79063 13.8125 8C13.8125 11.2094 11.2094 13.8125 8 13.8125Z" fill="#6E6E6E"/>
    <path d="M8 4.5C7.58579 4.5 7.25 4.83579 7.25 5.25C7.25 5.66421 7.58579 6 8 6C8.41421 6 8.75 5.66421 8.75 5.25C8.75 4.83579 8.41421 4.5 8 4.5Z" fill="#6E6E6E"/>
    <path d="M8 7C7.72386 7 7.5 7.22386 7.5 7.5V11.5C7.5 11.7761 7.72386 12 8 12C8.27614 12 8.5 11.7761 8.5 11.5V7.5C8.5 7.22386 8.27614 7 8 7Z" fill="#6E6E6E"/>
</svg>
