<?xml version="1.0" encoding="UTF-8"?>
<svg width="16" height="16" viewBox="0 0 16 16" fill="none" xmlns="http://www.w3.org/2000/svg">
    <path d="M13.3 7.1C13.3 6.7 13.4 6.4 13.4 6C13.4 5.6 13.4 5.3 13.3 4.9L14.9 3.7C15 3.6 15.1 3.4 15 3.3L13.5 0.7C13.4 0.6 13.2 0.5 13.1 0.6L11.2 1.3C10.7 0.9 10.2 0.7 9.6 0.5L9.3 -1.49012e-07C9.2 -1.49012e-07 9.1 -1.49012e-07 9 -1.49012e-07L7 -1.49012e-07C6.9 -1.49012e-07 6.8 -1.49012e-07 6.7 0.1L6.4 0.5C5.8 0.7 5.3 0.9 4.8 1.3L2.9 0.6C2.8 0.5 2.6 0.6 2.5 0.7L1 3.3C0.9 3.4 1 3.6 1.1 3.7L2.7 4.9C2.7 5.3 2.6 5.6 2.6 6C2.6 6.4 2.6 6.7 2.7 7.1L1.1 8.3C1 8.4 0.9 8.6 1 8.7L2.5 11.3C2.6 11.4 2.8 11.5 2.9 11.4L4.8 10.7C5.3 11.1 5.8 11.3 6.4 11.5L6.7 13C6.8 13.1 6.9 13.1 7 13.1L9 13.1C9.1 13.1 9.2 13.1 9.3 13L9.6 11.5C10.2 11.3 10.7 11.1 11.2 10.7L13.1 11.4C13.2 11.5 13.4 11.4 13.5 11.3L15 8.7C15.1 8.6 15 8.4 14.9 8.3L13.3 7.1ZM8 8.5C6.6 8.5 5.5 7.4 5.5 6C5.5 4.6 6.6 3.5 8 3.5C9.4 3.5 10.5 4.6 10.5 6C10.5 7.4 9.4 8.5 8 8.5Z" fill="#6E6E6E"/>
</svg>
