<?xml version="1.0" encoding="UTF-8"?>
<svg width="16" height="16" viewBox="0 0 16 16" fill="none" xmlns="http://www.w3.org/2000/svg">
    <path d="M8 1C4.13438 1 1 4.13438 1 8C1 11.8656 4.13438 15 8 15C11.8656 15 15 11.8656 15 8C15 4.13438 11.8656 1 8 1ZM13.125 5H11.0594C10.8406 4.075 10.5281 3.19375 10.1219 2.38125C11.4469 2.8375 12.5344 3.78125 13.125 5ZM8 2.1875C8.55625 3.0625 8.99375 4.0375 9.26875 5H6.73125C7.00625 4.0375 7.44375 3.0625 8 2.1875ZM2.3125 9.5C2.21875 9.03125 2.1875 8.53125 2.1875 8C2.1875 7.46875 2.21875 6.96875 2.3125 6.5H4.65625C4.59375 7 4.5625 7.5 4.5625 8C4.5625 8.5 4.59375 9 4.65625 9.5H2.3125ZM2.875 11H4.94062C5.15938 11.925 5.47188 12.8062 5.87812 13.6188C4.55312 13.1625 3.46562 12.2188 2.875 11ZM4.94062 5H2.875C3.46562 3.78125 4.55312 2.8375 5.87812 2.38125C5.47188 3.19375 5.15938 4.075 4.94062 5ZM8 13.8125C7.44375 12.9375 7.00625 11.9625 6.73125 11H9.26875C8.99375 11.9625 8.55625 12.9375 8 13.8125ZM9.5625 9.5H6.4375C6.36875 9 6.33125 8.5 6.33125 8C6.33125 7.5 6.36875 7 6.4375 6.5H9.5625C9.63125 7 9.66875 7.5 9.66875 8C9.66875 8.5 9.63125 9 9.5625 9.5ZM10.1219 13.6188C10.5281 12.8062 10.8406 11.925 11.0594 11H13.125C12.5344 12.2188 11.4469 13.1625 10.1219 13.6188ZM11.3438 9.5C11.4062 9 11.4375 8.5 11.4375 8C11.4375 7.5 11.4062 7 11.3438 6.5H13.6875C13.7812 6.96875 13.8125 7.46875 13.8125 8C13.8125 8.53125 13.7812 9.03125 13.6875 9.5H11.3438Z" fill="#6E6E6E"/>
</svg>
